<svg width="32" height="32" viewBox="0 0 24 24" fill="none" xmlns="http://www.w3.org/2000/svg"><path opacity="0.25" d="M4 21a1 1 0 0 1 1-1h14a1 1 0 1 1 0 2H5a1 1 0 0 1-1-1Z" fill="#12131A"></path><path d="M13.709 2.877a3 3 0 0 1 4.242 0l1.172 1.171a3 3 0 0 1 0 4.243l-.416.416-5.414-5.415.416-.415ZM5.797 10.796a1.5 1.5 0 0 0-.296.563L4.044 16.6a1.1 1.1 0 0 0 1.354 1.355l5.243-1.458a1.5 1.5 0 0 0 .562-.295l-5.406-5.406Z" fill="#12131A"></path><path opacity="0.25" d="m18.707 8.707-5.414-5.414L5.886 10.7c-.031.031-.06.064-.089.097l5.406 5.406c.034-.028.066-.058.097-.089l7.407-7.407Z" fill="#12131A"></path></svg>
