<svg width="32" height="32" viewBox="0 0 24 24" fill="none" xmlns="http://www.w3.org/2000/svg"><path fill-rule="evenodd" clip-rule="evenodd" d="M2 12c0-2.91 1.243-5.53 3.228-7.358l1.416 1.416A7.98 7.98 0 0 0 4 12a1 1 0 1 1-2 0Zm10-8c-1.33 0-2.584.324-3.687.899l-1.469-1.47A9.954 9.954 0 0 1 12 2a9.83 9.83 0 0 1 7.5 3.45V4a1 1 0 1 1 2 0v4a1 1 0 0 1-1.003 1l-.441-.001a.996.996 0 0 1-.116 0l-3.443-.01a1 1 0 0 1 .006-2l1.68.004A7.846 7.846 0 0 0 12 4Zm0 16a7.98 7.98 0 0 0 5.942-2.644l1.416 1.416A9.974 9.974 0 0 1 12 22a9.83 9.83 0 0 1-7.5-3.45V20a1 1 0 1 1-2 0v-4a1 1 0 0 1 1.003-1l.441.001c.039-.002.078-.002.116 0l3.443.01a1 1 0 0 1-.006 2l-1.68-.004A7.846 7.846 0 0 0 12 20Zm10-8c0 1.886-.522 3.65-1.43 5.156l-1.468-1.469A7.966 7.966 0 0 0 20 12a1 1 0 1 1 2 0Z" fill="#C9B5FF"></path><path fill-rule="evenodd" clip-rule="evenodd" d="M2.293 2.293a1 1 0 0 1 1.414 0l18 18a1 1 0 0 1-1.414 1.414l-18-18a1 1 0 0 1 0-1.414Z" fill="#7747FF"></path></svg>
